<?xml version="1.0" standalone="no"?>
<!DOCTYPE svg PUBLIC "-//W3C//DTD SVG 20010904//EN"
 "http://www.w3.org/TR/2001/REC-SVG-20010904/DTD/svg10.dtd">
<svg version="1.0" xmlns="http://www.w3.org/2000/svg"
 width="886.000000pt" height="886.000000pt" viewBox="0 0 886.000000 886.000000"
 preserveAspectRatio="xMidYMid meet">
<metadata>
Created by potrace 1.14, written by Peter Selinger 2001-2017
</metadata>
<g transform="translate(0.000000,886.000000) scale(0.100000,-0.100000)"
fill="#000000" stroke="none">
<path d="M8007 6603 c-3 -2 -150 -15 -199 -16 -25 -1 -44 -5 -42 -9 2 -4 -8
-5 -23 -4 -16 2 -31 -2 -35 -8 -5 -8 -8 -7 -8 2 0 7 -5 10 -10 7 -6 -3 -31 -8
-58 -10 -89 -6 -207 -16 -237 -20 -16 -2 -59 -7 -95 -10 -36 -4 -71 -8 -77
-10 -7 -3 -13 1 -13 8 0 8 -2 9 -8 1 -4 -6 -15 -10 -24 -8 -10 1 -18 -2 -18
-7 0 -11 -23 -7 -32 6 -5 6 -8 6 -8 -1 0 -6 -12 -10 -27 -9 -16 1 -32 0 -37
-3 -11 -6 -70 -12 -136 -14 -25 0 -48 -6 -52 -12 -5 -8 -8 -7 -8 2 0 7 -5 10
-11 6 -12 -7 -18 -8 -154 -19 -131 -11 -143 -12 -156 -20 -8 -6 -10 -4 -4 5 5
9 4 11 -4 6 -15 -10 -74 -18 -133 -18 -28 0 -45 -5 -42 -10 4 -6 -3 -5 -14 1
-13 7 -23 7 -27 1 -3 -5 -21 -8 -40 -6 -19 1 -35 0 -35 -3 0 -3 -25 -6 -55 -5
-30 1 -55 -2 -55 -5 0 -4 -21 -7 -47 -8 -27 0 -75 -4 -108 -8 -33 -4 -78 -9
-100 -10 -22 -2 -58 -4 -80 -6 -22 -1 -46 -7 -52 -12 -9 -6 -13 -5 -13 2 0 7
-5 9 -12 4 -7 -4 -29 -8 -48 -8 -19 -1 -64 -5 -100 -10 -36 -5 -89 -9 -117 -9
-29 -1 -53 -4 -53 -7 0 -3 -25 -6 -55 -5 -30 1 -55 -1 -55 -4 0 -3 -17 -7 -37
-8 -21 -1 -63 -4 -93 -7 -30 -3 -82 -7 -115 -10 -33 -3 -76 -8 -95 -10 -45 -6
-132 -15 -191 -19 -25 -1 -51 -6 -57 -10 -7 -4 -12 -2 -12 4 0 7 -5 8 -12 3
-7 -4 -37 -9 -65 -9 -29 -1 -59 -7 -67 -13 -9 -8 -16 -8 -20 -2 -4 5 -16 7
-29 4 -12 -3 -42 -7 -67 -8 -25 -2 -65 -7 -90 -10 -40 -6 -96 -11 -168 -14
-15 -1 -21 -5 -16 -13 5 -7 3 -8 -7 -3 -18 12 -70 13 -91 3 -12 -6 -18 -5 -18
4 0 10 -2 10 -8 1 -4 -7 -16 -10 -27 -9 -11 2 -24 1 -30 -3 -5 -3 -32 -7 -60
-8 -27 -1 -68 -5 -90 -7 -22 -3 -63 -7 -92 -10 -28 -2 -57 -7 -62 -11 -6 -3
-11 -1 -11 6 0 7 -4 8 -13 2 -6 -5 -32 -11 -57 -12 -25 -1 -67 -5 -95 -8 -27
-3 -69 -6 -92 -7 -24 -1 -43 -4 -43 -7 0 -8 -33 -5 -49 6 -9 5 -12 4 -7 -3 4
-6 -1 -11 -11 -11 -10 0 -43 -3 -73 -6 -30 -3 -79 -7 -107 -8 -29 -1 -53 -4
-53 -7 0 -3 -19 -5 -43 -4 -23 1 -46 -1 -52 -4 -5 -3 -32 -7 -60 -8 -27 -1
-51 -3 -52 -4 -7 -6 -30 -5 -50 1 -12 5 -23 4 -25 -1 -2 -4 -30 -11 -63 -14
-33 -3 -89 -9 -125 -12 -36 -4 -80 -7 -97 -8 -18 0 -33 -4 -33 -8 0 -5 -9 -4
-19 2 -11 5 -22 6 -25 2 -3 -5 -27 -10 -53 -11 -26 -1 -59 -4 -73 -5 -14 -2
-56 -6 -95 -10 -38 -4 -90 -9 -115 -12 -161 -16 -235 -23 -307 -29 -94 -6
-136 -21 -162 -55 -45 -62 -31 -135 37 -187 21 -15 38 -31 40 -35 2 -4 10 -8
17 -8 7 0 15 -3 17 -7 2 -5 30 -28 63 -53 33 -25 62 -48 63 -52 2 -5 8 -8 14
-8 5 0 15 -6 22 -12 7 -7 25 -22 41 -33 15 -11 42 -32 60 -47 18 -16 37 -28
43 -28 6 0 12 -4 14 -8 2 -5 48 -42 103 -83 55 -40 102 -76 105 -79 3 -3 50
-39 105 -80 55 -41 102 -77 105 -80 3 -3 21 -17 40 -30 43 -30 56 -40 81 -62
10 -10 23 -18 29 -18 5 0 10 -4 10 -10 0 -5 6 -10 14 -10 8 0 16 -3 18 -7 1
-5 29 -30 60 -56 32 -27 57 -51 55 -55 -1 -4 4 -34 12 -67 7 -33 19 -87 26
-120 8 -33 16 -73 19 -90 4 -31 39 -190 57 -260 11 -46 19 -81 23 -110 2 -11
6 -31 10 -45 3 -14 8 -36 10 -50 3 -14 8 -36 11 -50 13 -54 19 -86 19 -112 1
-14 3 -24 6 -22 2 3 10 -24 17 -58 7 -35 16 -74 19 -88 3 -14 7 -32 8 -40 1
-8 6 -28 9 -45 4 -16 10 -40 12 -52 3 -13 7 -33 10 -45 2 -13 8 -36 12 -53 4
-16 6 -36 4 -42 -1 -7 2 -13 6 -13 4 0 9 -19 11 -42 1 -23 8 -48 14 -55 6 -7
8 -13 5 -13 -3 0 1 -26 8 -57 7 -32 16 -71 19 -88 3 -16 10 -48 15 -70 5 -22
11 -49 14 -60 5 -21 20 -96 21 -105 1 -3 10 -18 21 -33 22 -29 110 -64 120
-46 4 5 13 9 21 9 12 0 270 186 484 349 117 89 162 121 169 121 5 0 12 7 15
16 3 8 10 12 16 9 5 -3 10 -2 10 3 0 5 21 24 48 42 26 19 49 38 50 42 2 4 9 8
15 8 7 0 26 14 44 30 18 17 36 30 40 30 5 0 16 8 25 18 24 24 46 42 54 42 4 0
16 8 26 17 18 16 21 16 51 -2 18 -10 34 -21 37 -25 3 -3 37 -30 75 -58 39 -28
77 -58 85 -65 8 -7 31 -24 50 -37 19 -13 37 -27 40 -30 5 -6 62 -48 375 -282
93 -71 180 -136 191 -145 12 -10 34 -27 49 -38 24 -17 118 -88 150 -113 169
-130 342 -256 364 -263 54 -19 132 10 146 54 4 9 11 17 16 17 5 0 9 9 9 19 0
11 4 21 8 23 10 4 132 207 132 219 0 4 3 9 8 11 5 2 449 733 532 877 56 97
226 377 231 381 3 3 8 10 10 16 2 6 47 81 99 167 52 86 100 165 105 174 6 10
52 88 103 173 52 85 99 164 105 174 7 11 27 44 45 72 17 29 32 55 32 58 0 3
13 24 28 48 16 24 38 59 48 78 10 19 25 41 32 48 6 7 12 19 12 27 0 7 3 15 8
17 7 3 72 105 72 114 0 2 20 35 45 74 25 39 45 72 45 74 0 5 209 347 221 362
5 6 6 14 2 17 -3 4 -1 7 5 7 7 0 12 5 12 12 0 6 6 19 14 27 8 9 21 27 28 41
16 29 45 79 169 285 85 141 90 153 85 193 -7 55 -32 87 -76 101 -28 9 -105 12
-113 4z"/>
<path d="M2320 4759 c0 -5 -3 -8 -7 -7 -9 1 -46 -13 -53 -21 -3 -3 -23 -15
-45 -27 -66 -34 -139 -75 -152 -86 -7 -6 -13 -7 -13 -2 0 5 -4 4 -8 -1 -4 -6
-29 -22 -57 -36 -27 -14 -72 -38 -100 -54 -27 -16 -70 -39 -95 -52 -25 -13
-58 -32 -75 -42 -16 -9 -64 -35 -105 -57 -41 -21 -78 -43 -82 -49 -5 -7 -8 -7
-8 0 0 7 -3 7 -8 0 -4 -5 -37 -26 -75 -45 -37 -19 -83 -49 -103 -67 -31 -27
-36 -38 -39 -82 -1 -28 1 -51 6 -51 5 0 9 -5 9 -11 0 -18 40 -48 79 -59 32 -9
44 -5 126 35 49 25 108 55 130 68 125 70 191 106 199 105 5 0 12 4 15 9 3 4
31 21 61 37 88 47 95 51 100 56 3 3 21 13 40 22 19 10 71 38 115 63 44 25 96
53 115 63 19 9 37 19 40 22 3 3 27 16 54 30 26 14 50 31 53 37 3 7 9 10 14 7
5 -3 9 0 9 5 0 18 0 20 15 48 8 15 11 30 6 33 -4 3 -7 13 -5 23 1 11 -12 35
-30 54 -27 30 -40 36 -79 38 -26 1 -47 -2 -47 -6z"/>
<path d="M980 4017 c0 -6 -3 -8 -6 -4 -7 6 -92 -35 -144 -70 -19 -12 -43 -23
-52 -23 -10 0 -18 -4 -18 -10 0 -5 -10 -12 -22 -16 -66 -17 -98 -134 -51 -184
13 -14 23 -28 23 -33 0 -4 5 -5 10 -2 6 3 10 2 10 -3 0 -19 122 -4 140 17 3 3
48 28 100 55 91 47 138 82 133 98 -2 5 2 8 8 8 7 0 9 10 7 25 -3 14 -2 25 2
25 4 0 7 7 7 15 0 8 -4 15 -9 15 -4 0 -7 3 -6 8 6 21 -17 52 -48 67 -43 20
-84 26 -84 12z"/>
<path d="M2380 3883 c0 -5 -10 -9 -22 -9 -28 -2 -50 -8 -63 -16 -26 -15 -97
-55 -175 -96 -47 -25 -93 -52 -102 -60 -10 -8 -18 -11 -18 -6 0 5 -4 5 -8 -1
-4 -5 -25 -19 -47 -30 -22 -11 -42 -22 -45 -25 -3 -3 -36 -21 -75 -40 -38 -19
-72 -38 -75 -41 -3 -3 -45 -27 -95 -54 -49 -27 -103 -56 -120 -65 -16 -9 -57
-32 -90 -50 -33 -18 -80 -44 -105 -58 -25 -14 -67 -37 -95 -51 -27 -13 -52
-27 -55 -30 -3 -3 -27 -18 -55 -32 -47 -25 -105 -57 -220 -121 -27 -16 -58
-31 -68 -34 -9 -4 -17 -10 -17 -15 0 -5 -3 -9 -7 -8 -17 2 -53 -14 -53 -24 0
-6 -3 -8 -6 -4 -7 7 -38 -23 -49 -49 -24 -56 -10 -123 30 -144 14 -7 25 -17
25 -21 0 -3 24 -6 53 -5 53 2 95 21 279 127 36 22 71 39 76 39 6 0 12 3 14 8
2 4 23 17 48 30 128 66 235 126 238 134 2 4 12 8 22 8 10 0 21 4 24 9 3 5 25
19 48 31 75 39 193 103 203 110 6 4 44 25 85 47 41 22 92 50 113 62 22 12 78
43 125 68 48 25 103 57 122 70 19 12 38 23 41 23 12 0 171 91 188 108 52 50
55 124 6 178 -16 16 -75 46 -75 37z"/>
<path d="M2015 2807 c-16 -5 -47 -21 -67 -34 -21 -12 -40 -23 -44 -23 -3 0
-18 -9 -34 -20 -15 -11 -30 -17 -34 -13 -3 3 -6 1 -6 -5 0 -7 -9 -12 -20 -12
-11 0 -20 -4 -20 -9 0 -5 -17 -17 -37 -26 -21 -10 -50 -26 -65 -37 -16 -11
-28 -16 -28 -13 0 3 -12 -2 -27 -13 -16 -10 -41 -26 -58 -34 -76 -38 -171 -92
-184 -106 -75 -75 -23 -210 80 -208 33 1 179 66 207 94 7 6 18 12 23 12 5 0
27 11 49 25 22 14 40 22 40 18 0 -5 4 -3 8 3 4 6 43 30 87 54 186 100 211 113
226 126 8 8 20 14 26 14 15 0 43 63 43 97 0 40 -53 112 -84 114 -6 0 -20 2
-31 4 -11 1 -33 -2 -50 -8z"/>
</g>
</svg>
